<?xml version="1.0" encoding="UTF-8"?>
<svg id="Capa_1" data-name="Capa 1" xmlns="http://www.w3.org/2000/svg" viewBox="0 0 450 450" fill="#ffffff">
  <g>
    <polygon points="193.74 181.86 177.29 213.58 61.94 213.58 61.94 65.86 119.18 65.86 119.51 181.86 193.74 181.86"/>
    <polygon points="67.3 208.23 67.3 71.22 113.83 71.22 114.17 187.22 184.93 187.22 174.03 208.23 67.3 208.23"/>
    <polygon points="115.83 269.08 115.83 296.07 192.39 296.07 176.46 327.09 115.83 327.09 115.51 385.09 61.17 385.09 61.17 237.36 62.45 237.36 61.17 237.12 222.66 237.12 206.25 269.08 115.83 269.08"/>
    <polygon points="66.53 379.73 66.53 242.48 213.89 242.48 202.98 263.73 110.47 263.73 110.47 301.43 183.62 301.43 173.19 321.73 110.5 321.73 110.18 379.73 66.53 379.73"/>
    <polygon points="388.82 237.12 388.82 269.08 336.09 269.08 335.76 385.09 281.74 385.09 281.74 269.08 206.25 269.08 222.66 237.12 388.82 237.12"/>
    <polygon points="287.1 379.73 287.1 263.73 215.02 263.73 225.94 242.48 383.46 242.48 383.46 263.73 330.74 263.73 330.42 379.73 287.1 379.73"/>
  </g>
  <path d="M0,0v450h450V0H0ZM37.29,412.71V37.29h375.41v375.41H37.29Z"/>
  <path d="M5.36,444.64V5.36h439.29v439.29H5.36ZM31.94,418.06h386.13V31.94H31.94v386.13Z"/>
  <path d="M316.02,64.91h-61.63c-1.57,3.03-6.53,12.59-13.57,26.18-.36.69-.72,1.39-1.09,2.11-13.04,25.14-32.62,62.89-51.22,98.76-.7,1.36-1.4,2.71-2.1,4.05-.39.74-.77,1.48-1.15,2.22-.62,1.19-1.24,2.39-1.85,3.57-1.43,2.75-2.84,5.49-4.25,8.2-.62,1.2-1.24,2.4-1.86,3.59-11.19,21.58-21.4,41.27-28.78,55.5h57.74c9.51-18.5,19.03-37,28.54-55.5h154.04l-72.81-148.67ZM250.92,182.1l34.29-66.76.05.1,30.77,66.65h-65.1Z"/>
  <path d="M285.26,115.44c-11.42,22.22-22.85,44.44-34.27,66.65h-.06l34.29-66.76.05.1Z"/>
  <path d="M285.26,115.44c-11.42,22.22-22.85,44.44-34.27,66.65h-.06l34.29-66.76.05.1Z"/>
  <path d="M242.15,187.45l43.24-84.18,4.66,9.76,34.35,74.42h-76.22c-3.55,6.92-7.1,13.85-10.65,20.77h142.71l-67.56-137.96h-55.03l-.03.05c-2.34,4.51-6.56,12.65-12.05,23.24l-1.09,2.1c-9.71,18.72-23.05,44.43-36.9,71.15l-16.45,31.71c-.37.71-.75,1.43-1.12,2.15-.62,1.2-1.24,2.4-1.86,3.59-1.39,2.67-2.76,5.32-4.12,7.96l-.2.39c-.6,1.15-1.2,2.31-1.79,3.44-7.88,15.19-15.27,29.44-21.53,41.51l-3.2,6.17h45.66c9.02-17.53,18.03-35.06,27.04-52.59l1.08-2.1c3.68-7.2,7.37-14.39,11.05-21.59Z"/>
</svg>